<?xml version="1.0" encoding="utf-8"?>
<!-- Generator: Adobe Illustrator 28.2.0, SVG Export Plug-In . SVG Version: 6.00 Build 0)  -->
<svg version="1.1" id="Layer_2_00000020378732200606079940000005199225887239426442_"
	 xmlns="http://www.w3.org/2000/svg" xmlns:xlink="http://www.w3.org/1999/xlink" x="0px" y="0px" viewBox="0 0 1060.6 247.5"
	 style="enable-background:new 0 0 1060.6 247.5;" xml:space="preserve">
<style type="text/css">
	.st0{fill:#FFFFFF;stroke:#000000;stroke-width:0.25;stroke-miterlimit:10;}
	.st1{fill:#FFFFFF;stroke:#000000;stroke-miterlimit:10;}
</style>
<path class="st0" d="M21,186.4v-39h22.4c3.8,0,6.8,0.9,8.9,2.8c2.2,1.9,3.3,4.5,3.3,7.7s-1,6.1-3.2,8.2c-2.1,2.1-4.9,3.1-8.4,3.1
	H25.8v17.1L21,186.4L21,186.4z M25.8,164.8H43c2.5,0,4.3-0.5,5.5-1.6c1.3-1.1,1.9-2.7,1.9-4.8s-0.6-3.6-1.9-4.8
	c-1.2-1.1-3-1.7-5.3-1.7H25.8L25.8,164.8L25.8,164.8z"/>
<path class="st0" d="M72.5,186.4v-39h22.4c3.8,0,6.8,1,8.9,2.9c2.2,1.9,3.2,4.6,3.2,7.9c0,2.8-0.8,5.2-2.5,7.2
	c-1.7,2-3.9,3.3-6.7,3.8l9.7,17.1h-5.3l-9.8-17.1H77.4v17.1L72.5,186.4L72.5,186.4z M77.4,164.8h17.2c2.4,0,4.3-0.5,5.6-1.6
	c1.3-1.1,1.9-2.7,1.9-4.8s-0.6-3.6-1.9-4.8c-1.2-1.1-3-1.7-5.3-1.7H77.4L77.4,164.8L77.4,164.8z"/>
<path class="st0" d="M142.2,187.4c-5.8,0-10.7-1.9-14.5-5.8c-3.8-3.8-5.7-8.7-5.7-14.6s1.9-10.8,5.7-14.7c3.8-3.8,8.6-5.8,14.4-5.8
	s10.7,1.9,14.5,5.8c3.8,3.9,5.8,8.7,5.8,14.6s-1.9,10.8-5.7,14.6C152.9,185.5,148,187.4,142.2,187.4 M142.2,182.9
	c4.4,0,8-1.5,10.9-4.5c2.9-3,4.3-6.8,4.3-11.4s-1.4-8.4-4.3-11.4c-2.9-3-6.5-4.5-10.9-4.5s-8,1.5-10.9,4.5c-2.9,3-4.3,6.8-4.3,11.4
	s1.4,8.4,4.3,11.4C134.2,181.4,137.8,182.9,142.2,182.9L142.2,182.9z"/>
<path class="st0" d="M179.9,186.4v-39h22.4c3.8,0,6.8,0.9,8.9,2.8c2.2,1.9,3.3,4.5,3.3,7.7s-1.1,6.1-3.2,8.2
	c-2.1,2.1-4.9,3.1-8.4,3.1h-18.1v17.1L179.9,186.4L179.9,186.4z M184.8,164.8h17.2c2.4,0,4.3-0.5,5.6-1.6c1.3-1.1,1.9-2.7,1.9-4.8
	s-0.6-3.6-1.9-4.8c-1.2-1.1-3-1.7-5.3-1.7h-17.4V164.8L184.8,164.8z"/>
<polygon class="st0" points="231.7,186.4 231.7,147.5 262.3,147.5 262.3,152 236.5,152 236.5,163.4 252.1,163.4 252.1,167.9 
	236.5,167.9 236.5,181.9 263.9,181.9 263.9,186.4 "/>
<path class="st0" d="M280.1,186.4v-39h22.4c3.8,0,6.8,1,9,2.9c2.2,1.9,3.2,4.6,3.2,7.9c0,2.8-0.8,5.2-2.5,7.2
	c-1.7,2-3.9,3.3-6.7,3.8l9.7,17.1h-5.4l-9.8-17.1h-15.1v17.1L280.1,186.4L280.1,186.4z M285,164.8h17.2c2.5,0,4.3-0.5,5.5-1.6
	c1.3-1.1,1.9-2.7,1.9-4.8s-0.6-3.6-1.9-4.8c-1.2-1.1-3-1.7-5.3-1.7H285V164.8L285,164.8z"/>
<polygon class="st0" points="339.5,186.4 339.5,152 323.1,152 323.1,147.5 360.7,147.5 360.7,152 344.3,152 344.3,186.4 "/>
<rect x="372.1" y="147.3" class="st0" width="4.9" height="39.2"/>
<polygon class="st0" points="397.9,186.4 397.9,147.5 428.6,147.5 428.6,152 402.8,152 402.8,163.4 418.4,163.4 418.4,167.9 
	402.8,167.9 402.8,181.9 430.2,181.9 430.2,186.4 "/>
<path class="st0" d="M442.9,180.6l2.8-4.2c2.8,2.1,5.6,3.8,8.6,4.9c3,1.1,5.9,1.7,8.8,1.7c3.6,0,6.5-0.8,8.8-2.3
	c2.2-1.5,3.4-3.5,3.4-5.9c0-1.9-0.8-3.5-2.4-4.7c-1.6-1.2-3.8-2-6.7-2.2c-0.7-0.1-1.7-0.1-3-0.2c-6.4-0.5-10.8-1.2-13.1-2.3
	c-1.8-0.9-3.2-2-4.1-3.4c-0.9-1.4-1.4-2.9-1.4-4.6c0-3.1,1.4-5.7,4.2-7.8c2.8-2,6.4-3,10.9-3c3.2,0,6.5,0.5,9.6,1.6
	c3.2,1.1,6.2,2.7,9,4.8l-2.8,4.1c-2.4-1.9-4.9-3.4-7.6-4.4c-2.6-1-5.4-1.5-8.2-1.5c-2.9,0-5.4,0.6-7.3,1.7c-1.9,1.1-2.9,2.6-2.9,4.3
	c0,0.7,0.2,1.3,0.5,1.9c0.3,0.6,0.8,1.1,1.4,1.6c1.6,1.2,5.1,2,10.4,2.3c2.5,0.1,4.4,0.3,5.7,0.5c4,0.4,7.1,1.7,9.4,3.8
	c2.3,2.1,3.5,4.7,3.5,7.7c0,3.6-1.6,6.6-4.8,9s-7.3,3.5-12.5,3.5c-3.9,0-7.5-0.6-10.8-1.7C449,184.6,445.8,182.9,442.9,180.6"/>
<polygon class="st0" points="523,186.4 523,147.5 527.8,147.5 527.8,181.9 553.3,181.9 553.3,186.4 "/>
<polygon class="st0" points="569.9,186.4 569.9,152 553.5,152 553.5,147.5 591.1,147.5 591.1,152 574.7,152 574.7,186.4 "/>
<path class="st0" d="M619.1,147.5c6.1,0,11.1,1.8,14.8,5.4c3.8,3.6,5.6,8.3,5.6,14.1s-1.8,10.6-5.5,14.1c-3.7,3.5-8.7,5.3-14.9,5.3
	h-16.7v-39L619.1,147.5L619.1,147.5z M619.1,152h-11.9v30h11.9c4.8,0,8.6-1.4,11.3-4c2.8-2.7,4.1-6.3,4.1-10.9s-1.4-8.2-4.2-10.9
	C627.6,153.3,623.8,152,619.1,152L619.1,152z"/>
<path class="st0" d="M127.3,238.9c0,0.6-0.2,1.1-0.6,1.5c-0.4,0.4-0.9,0.6-1.5,0.6s-1.1-0.2-1.5-0.6s-0.6-0.9-0.6-1.5
	s0.2-1.1,0.6-1.5c0.4-0.4,0.9-0.6,1.5-0.6s1.1,0.2,1.5,0.6S127.3,238.3,127.3,238.9"/>
<path class="st0" d="M135.8,238.9c0,0.6-0.2,1.1-0.6,1.5c-0.4,0.4-0.9,0.6-1.5,0.6s-1.1-0.2-1.5-0.6s-0.6-0.9-0.6-1.5
	s0.2-1.1,0.6-1.5c0.4-0.4,0.9-0.6,1.5-0.6s1.1,0.2,1.5,0.6S135.8,238.3,135.8,238.9"/>
<path class="st0" d="M144.3,238.9c0,0.6-0.2,1.1-0.6,1.5c-0.4,0.4-0.9,0.6-1.5,0.6s-1.1-0.2-1.5-0.6s-0.6-0.9-0.6-1.5
	s0.2-1.1,0.6-1.5c0.4-0.4,0.9-0.6,1.5-0.6s1.1,0.2,1.5,0.6S144.3,238.3,144.3,238.9"/>
<path class="st0" d="M159.9,231c0-0.5-0.1-1.1-0.1-1.6c-0.1-0.6-0.3-1-0.5-1.4c-0.2-0.4-0.6-0.7-1-0.9c-0.4-0.2-0.9-0.3-1.5-0.3
	c-0.4,0-0.7,0.1-1,0.2c-0.3,0.1-0.6,0.3-1,0.5c-0.3,0.2-0.6,0.4-0.9,0.7c-0.3,0.3-0.6,0.5-0.8,0.7l-2.1,9.2c0,0.2,0.1,0.4,0.3,0.7
	c0.2,0.2,0.4,0.5,0.6,0.6c0.3,0.2,0.6,0.4,1,0.5c0.4,0.1,0.8,0.2,1.2,0.2c0.8,0,1.6-0.2,2.3-0.7s1.3-1.1,1.9-1.9
	c0.6-0.9,1-1.9,1.3-3C159.7,233.3,159.9,232.1,159.9,231 M163,231c0,1.4-0.2,2.7-0.7,3.9s-1.1,2.3-2,3.2c-0.8,0.9-1.8,1.6-2.8,2.2
	s-2.2,0.8-3.3,0.8c-0.9,0-1.7-0.1-2.3-0.2c-0.7-0.1-1.2-0.4-1.7-0.6c-0.5-0.3-0.9-0.6-1.2-0.9c-0.3-0.3-0.6-0.7-0.9-1.1l4-17.4
	c0.1-0.2,0.1-0.4,0.1-0.6c0-0.2,0.1-0.3,0.1-0.5c0-0.4-0.1-0.7-0.2-0.9s-0.3-0.4-0.5-0.4c-0.2-0.1-0.5-0.2-0.8-0.2
	c-0.3,0-0.7-0.1-1-0.1l0.2-0.9l5.7-0.4l0.2,0.2l-2.3,10.2h0.1c0.9-0.8,1.7-1.4,2.4-1.7c0.7-0.3,1.4-0.5,2.1-0.5
	c1.6,0,2.8,0.5,3.7,1.6C162.6,227.7,163,229.2,163,231L163,231z"/>
<path class="st0" d="M175.5,227.9c0-0.4-0.1-0.7-0.2-0.9c-0.1-0.2-0.3-0.4-0.4-0.5c-0.2-0.1-0.4-0.2-0.6-0.2c-0.2,0-0.4-0.1-0.6-0.1
	c-1.2,0-2.4,0.7-3.4,2c-1.1,1.4-1.7,3-2,5c0.7-0.1,1.5-0.2,2.4-0.4s1.7-0.4,2.3-0.8c0.9-0.4,1.5-1,1.9-1.7S175.5,228.9,175.5,227.9
	 M178.3,228.3c0,1.1-0.3,2-1,2.8c-0.7,0.8-1.7,1.4-3,1.9c-1,0.4-1.9,0.6-2.9,0.9s-2.1,0.4-3.2,0.5c0,1.6,0.3,2.9,0.9,3.7
	c0.6,0.9,1.5,1.3,2.6,1.3c1,0,1.9-0.3,2.7-0.8c0.8-0.5,1.6-1.3,2.3-2.3l0.9,0.6c-0.8,1.2-1.9,2.2-3.1,3s-2.5,1.1-3.8,1.1
	c-1.8,0-3.2-0.5-4.2-1.5c-1-1-1.4-2.5-1.4-4.3c0-1.3,0.2-2.5,0.6-3.7c0.4-1.2,1-2.2,1.8-3.2c0.8-1,1.7-1.7,2.8-2.3
	c1.1-0.6,2.3-0.9,3.7-0.9c1.5,0,2.6,0.3,3.3,0.9C178,226.6,178.3,227.4,178.3,228.3L178.3,228.3z"/>
<path class="st0" d="M183.6,240.9c-1,0-1.7-0.2-2.1-0.6c-0.4-0.4-0.7-1-0.7-1.7c0-0.2,0-0.5,0.1-0.7c0-0.2,0.1-0.4,0.1-0.7l2.4-10.3
	h-2.8l0.3-1.4h2.8l1.1-4.5h2.8l-1,4.5h4.3l-0.3,1.4h-4.2l-2,8.5c-0.1,0.4-0.2,0.8-0.2,1.1c-0.1,0.4-0.1,0.7-0.1,0.9
	c0,0.6,0.1,1,0.4,1.2c0.3,0.3,0.8,0.4,1.5,0.4c0.3,0,0.6,0,1.1-0.1c0.5-0.1,0.9-0.1,1.1-0.2l-0.3,1.1c-0.7,0.3-1.4,0.5-2,0.7
	S184.5,240.9,183.6,240.9"/>
<path class="st0" d="M194.6,240.9c-1,0-1.7-0.2-2.1-0.6c-0.4-0.4-0.7-1-0.7-1.7c0-0.2,0-0.5,0.1-0.7c0-0.2,0.1-0.4,0.1-0.7l2.4-10.3
	h-2.8l0.3-1.4h2.8l1.1-4.5h2.8l-1,4.5h4.3l-0.3,1.4h-4.2l-2,8.5c-0.1,0.4-0.2,0.8-0.2,1.1c-0.1,0.4-0.1,0.7-0.1,0.9
	c0,0.6,0.1,1,0.4,1.2c0.3,0.3,0.8,0.4,1.5,0.4c0.3,0,0.6,0,1.1-0.1c0.5-0.1,0.9-0.1,1.1-0.2l-0.3,1.1c-0.7,0.3-1.4,0.5-2,0.7
	S195.4,240.9,194.6,240.9"/>
<path class="st0" d="M212.3,227.9c0-0.4-0.1-0.7-0.2-0.9c-0.1-0.2-0.3-0.4-0.4-0.5c-0.2-0.1-0.4-0.2-0.6-0.2c-0.2,0-0.4-0.1-0.6-0.1
	c-1.2,0-2.4,0.7-3.4,2c-1.1,1.4-1.7,3-2,5c0.7-0.1,1.5-0.2,2.4-0.4s1.7-0.4,2.3-0.8c0.9-0.4,1.5-1,1.9-1.7S212.3,228.9,212.3,227.9
	 M215.1,228.3c0,1.1-0.3,2-1,2.8c-0.7,0.8-1.7,1.4-3,1.9c-1,0.4-1.9,0.6-2.9,0.9s-2.1,0.4-3.2,0.5c0,1.6,0.3,2.9,0.9,3.7
	c0.6,0.9,1.5,1.3,2.6,1.3c1,0,1.9-0.3,2.7-0.8c0.8-0.5,1.6-1.3,2.3-2.3l0.9,0.6c-0.8,1.2-1.9,2.2-3.1,3s-2.5,1.1-3.9,1.1
	c-1.8,0-3.2-0.5-4.2-1.5c-1-1-1.4-2.5-1.4-4.3c0-1.3,0.2-2.5,0.6-3.7c0.4-1.2,1-2.2,1.8-3.2c0.8-1,1.7-1.7,2.8-2.3
	c1.1-0.6,2.3-0.9,3.7-0.9c1.5,0,2.6,0.3,3.3,0.9C214.7,226.6,215.1,227.4,215.1,228.3L215.1,228.3z"/>
<path class="st0" d="M230.4,227.6c0,0.3,0,0.6-0.1,0.9c-0.1,0.4-0.2,0.6-0.4,0.9c-0.2,0.3-0.4,0.5-0.6,0.6s-0.5,0.2-0.9,0.2
	c-0.6,0-1-0.1-1.2-0.4c-0.3-0.3-0.4-0.6-0.4-0.9s0.1-0.7,0.2-1.1c0.1-0.4,0.3-0.8,0.5-1.2c-0.1,0-0.3,0-0.6,0.1s-0.6,0.2-1,0.4
	c-0.4,0.2-0.9,0.5-1.4,0.9s-1.1,0.9-1.6,1.6l-2.5,11h-2.9l2.2-10c0.1-0.2,0.1-0.6,0.2-1.1c0.1-0.5,0.1-0.9,0.1-1.1
	c0-0.6-0.1-1-0.3-1.2c-0.2-0.2-0.6-0.3-1.2-0.3c-0.2,0-0.5,0-0.9,0.1c-0.4,0.1-0.6,0.2-0.8,0.2l0.2-1c0.8-0.4,1.5-0.6,2.1-0.8
	c0.6-0.2,1.1-0.3,1.6-0.3c0.8,0,1.4,0.2,1.8,0.7c0.4,0.4,0.5,1.1,0.5,2h0.1c1.2-1.1,2.1-1.8,2.8-2.2c0.6-0.4,1.3-0.6,2-0.6
	c0.3,0,0.6,0,0.9,0.1c0.3,0.1,0.6,0.2,0.8,0.4c0.2,0.2,0.4,0.5,0.5,0.8S230.4,227.1,230.4,227.6"/>
<path class="st0" d="M254.7,238.8l-0.2,1c-0.9,0.4-1.6,0.6-2.2,0.8c-0.5,0.2-1,0.3-1.6,0.3c-0.8,0-1.4-0.2-1.9-0.6
	c-0.4-0.4-0.6-0.9-0.6-1.6c0-0.2,0-0.5,0.1-0.8c0-0.3,0.1-0.6,0.2-1l1.5-5.7c0.1-0.4,0.2-0.9,0.3-1.2c0.1-0.4,0.1-0.6,0.1-0.9
	c0-0.7-0.2-1.2-0.5-1.6c-0.3-0.4-0.8-0.6-1.4-0.6s-1.4,0.2-2.1,0.6c-0.8,0.4-1.5,1-2.1,1.8l-2.6,11.3h-2.9l4.6-19.8
	c0.1-0.2,0.1-0.4,0.1-0.6c0-0.2,0.1-0.3,0.1-0.5c0-0.4-0.1-0.7-0.2-0.9c-0.1-0.2-0.3-0.4-0.5-0.4c-0.2-0.1-0.5-0.2-0.8-0.2
	c-0.3,0-0.7-0.1-1-0.1l0.2-0.9l5.7-0.4l0.1,0.2l-2.5,10.6h0.1c1.1-0.9,2-1.5,2.8-1.9c0.8-0.4,1.8-0.7,2.8-0.7c1,0,1.8,0.3,2.3,0.9
	c0.6,0.6,0.8,1.3,0.8,2.2c0,0.2,0,0.5-0.1,1c-0.1,0.5-0.1,0.9-0.3,1.4l-1.3,4.9c-0.1,0.3-0.2,0.7-0.3,1.1c-0.1,0.4-0.1,0.8-0.1,1
	c0,0.6,0.1,1,0.4,1.2s0.7,0.3,1.3,0.3c0.2,0,0.5,0,0.9-0.1C254.3,238.9,254.6,238.9,254.7,238.8"/>
<path class="st0" d="M268.3,230.6c0-1.5-0.3-2.6-0.8-3.3c-0.5-0.7-1.3-1.1-2.2-1.1c-0.9,0-1.6,0.3-2.4,0.8c-0.8,0.5-1.4,1.4-1.9,2.6
	c-0.4,0.9-0.7,1.9-0.9,3c-0.2,1.1-0.3,2.1-0.3,3c0,1.5,0.2,2.6,0.8,3.3c0.5,0.8,1.3,1.1,2.3,1.1c0.9,0,1.7-0.3,2.4-0.9
	c0.7-0.6,1.3-1.3,1.7-2.2c0.4-0.9,0.8-1.9,1-3C268.2,232.9,268.3,231.7,268.3,230.6 M271.5,231.1c0,1.2-0.2,2.4-0.6,3.6
	c-0.4,1.2-1,2.3-1.8,3.2c-0.8,0.9-1.7,1.7-2.9,2.3c-1.1,0.6-2.4,0.9-3.9,0.9c-1.7,0-3.1-0.6-4.1-1.6c-1.1-1.1-1.6-2.6-1.6-4.4
	c0-1.4,0.2-2.6,0.7-3.8c0.5-1.2,1.1-2.2,1.8-3.1c0.8-0.9,1.7-1.6,2.9-2.2s2.4-0.8,3.7-0.8c1.8,0,3.2,0.6,4.3,1.7
	S271.5,229.3,271.5,231.1L271.5,231.1z"/>
<path class="st0" d="M283.4,238.5L283.4,238.5c-0.6,0.4-1,0.7-1.4,1.1s-0.9,0.6-1.3,0.8c-0.5,0.2-0.9,0.4-1.3,0.5
	c-0.4,0.1-0.9,0.2-1.6,0.2c-1,0-1.8-0.3-2.3-0.9s-0.8-1.3-0.8-2.2c0-0.2,0-0.5,0.1-0.9c0-0.3,0.1-0.8,0.3-1.5l1.2-4.9
	c0.1-0.4,0.2-0.9,0.2-1.2c0.1-0.4,0.1-0.7,0.1-1c0-0.6-0.1-0.9-0.3-1.1s-0.6-0.3-1.2-0.3c-0.2,0-0.5,0-0.9,0.1
	c-0.4,0.1-0.6,0.2-0.8,0.2l0.2-1c0.8-0.4,1.5-0.6,2.1-0.9c0.6-0.2,1.1-0.3,1.5-0.3c0.8,0,1.4,0.2,1.8,0.6c0.4,0.4,0.6,0.9,0.6,1.6
	c0,0.2,0,0.4-0.1,0.8c0,0.3-0.1,0.6-0.2,0.9l-1.4,5.7c-0.1,0.4-0.2,0.8-0.2,1.2c-0.1,0.4-0.1,0.7-0.1,0.9c0,0.7,0.1,1.2,0.4,1.6
	c0.3,0.4,0.8,0.6,1.4,0.6s1.3-0.2,2-0.5c0.7-0.4,1.4-0.9,2.1-1.6l2.7-11.6l2.7-0.2l0.2,0.2l-2.3,9.9c-0.1,0.4-0.2,0.8-0.3,1.3
	c-0.1,0.4-0.1,0.7-0.1,0.9c0,0.6,0.1,1,0.4,1.2c0.2,0.2,0.7,0.3,1.2,0.3c0.2,0,0.5,0,0.8-0.1c0.4-0.1,0.6-0.1,0.8-0.2l-0.2,1
	c-0.9,0.4-1.6,0.6-2.1,0.8s-1.1,0.3-1.6,0.3c-0.8,0-1.4-0.2-1.9-0.7C283.6,239.7,283.4,239.1,283.4,238.5"/>
<path class="st0" d="M296.2,241.1c-1.5,0-2.8-0.3-3.8-0.8c-1-0.5-1.5-1.2-1.5-2.1c0-0.4,0.1-0.8,0.5-1.1c0.3-0.4,0.7-0.5,1.1-0.5
	s0.7,0.1,1,0.3c0.2,0.2,0.5,0.4,0.6,0.7c0.2,0.3,0.3,0.6,0.4,0.9c0.1,0.4,0.2,0.7,0.3,0.9c0.1,0.2,0.4,0.3,0.6,0.5
	c0.3,0.1,0.7,0.2,1.2,0.2c1.1,0,1.9-0.3,2.5-0.8c0.6-0.6,0.9-1.3,0.9-2.2c0-0.7-0.3-1.3-0.8-1.7c-0.5-0.4-1.3-0.8-2.4-1.1
	c-0.4-0.1-0.8-0.3-1.3-0.6c-0.5-0.2-0.9-0.5-1.2-0.8c-0.4-0.3-0.7-0.7-0.9-1.2c-0.2-0.4-0.3-1-0.3-1.6c0-1.3,0.6-2.4,1.8-3.4
	c1.2-1,2.6-1.4,4.3-1.4c0.4,0,0.8,0,1.3,0.1c0.5,0,1,0.1,1.5,0.3c0.5,0.2,0.9,0.4,1.2,0.7c0.3,0.3,0.5,0.7,0.5,1.2
	c0,0.4-0.1,0.8-0.4,1.1c-0.3,0.3-0.7,0.5-1.1,0.5c-0.4,0-0.7-0.1-1-0.2c-0.2-0.2-0.5-0.4-0.6-0.6c-0.2-0.3-0.3-0.6-0.4-0.9
	c-0.1-0.3-0.2-0.6-0.3-0.9c-0.2-0.1-0.4-0.1-0.5-0.2c-0.1,0-0.4-0.1-0.6-0.1c-1,0-1.8,0.3-2.3,0.8s-0.8,1.2-0.8,1.9s0.2,1.3,0.7,1.6
	c0.5,0.4,1.2,0.7,2.3,1.1c1.4,0.5,2.4,1.1,3,1.7c0.6,0.6,1,1.4,1,2.4c0,1.6-0.6,2.8-1.8,3.8C299.5,240.6,298,241.1,296.2,241.1"/>
<path class="st0" d="M313.8,219.3c0,0.6-0.2,1.1-0.6,1.5c-0.4,0.4-0.9,0.7-1.4,0.7c-0.5,0-1-0.2-1.4-0.6c-0.4-0.4-0.6-0.9-0.6-1.4
	c0-0.6,0.2-1.1,0.6-1.5s0.8-0.6,1.4-0.6c0.6,0,1.1,0.2,1.4,0.6S313.8,218.8,313.8,219.3 M312.7,238.9l-0.2,1
	c-0.9,0.4-1.7,0.6-2.3,0.8c-0.6,0.1-1,0.2-1.5,0.2c-0.8,0-1.4-0.2-1.8-0.6s-0.6-0.9-0.6-1.6c0-0.2,0-0.5,0.1-0.7
	c0-0.3,0.1-0.6,0.2-1l1.6-6.5c0.1-0.4,0.2-0.7,0.2-1.1s0.1-0.8,0.1-1c0-0.6-0.1-1-0.3-1.1c-0.2-0.2-0.6-0.3-1.2-0.3
	c-0.2,0-0.5,0-0.9,0.1c-0.4,0.1-0.7,0.1-0.9,0.2l0.2-1c0.8-0.4,1.5-0.6,2.2-0.8c0.6-0.2,1.1-0.3,1.5-0.3c0.8,0,1.5,0.2,1.8,0.6
	c0.4,0.4,0.6,0.9,0.6,1.6c0,0.2,0,0.4-0.1,0.8c0,0.3-0.1,0.6-0.2,0.9l-1.6,6.6c-0.1,0.4-0.2,0.8-0.3,1.2c-0.1,0.4-0.1,0.7-0.1,0.9
	c0,0.6,0.1,1,0.4,1.2s0.7,0.3,1.3,0.3c0.2,0,0.5,0,0.8-0.1C312.3,239.1,312.5,239,312.7,238.9L312.7,238.9z"/>
<path class="st0" d="M331.3,238.8l-0.2,1c-0.9,0.4-1.7,0.6-2.2,0.8c-0.5,0.2-1,0.3-1.6,0.3c-0.8,0-1.5-0.2-1.9-0.6
	c-0.4-0.4-0.6-0.9-0.6-1.6c0-0.2,0-0.5,0.1-0.8c0-0.3,0.1-0.6,0.2-1l1.5-5.7c0.1-0.4,0.2-0.9,0.3-1.2c0.1-0.4,0.1-0.6,0.1-0.9
	c0-0.7-0.2-1.2-0.5-1.6c-0.3-0.4-0.8-0.6-1.4-0.6s-1.3,0.2-2.1,0.6c-0.8,0.4-1.5,1-2.2,1.8l-2.6,11.3h-2.9l2.3-10
	c0-0.2,0.1-0.6,0.2-1.1c0.1-0.5,0.1-0.9,0.1-1.1c0-0.6-0.1-1-0.3-1.2c-0.2-0.2-0.6-0.3-1.2-0.3c-0.2,0-0.5,0-0.9,0.1
	c-0.4,0.1-0.6,0.2-0.8,0.2l0.2-1c0.8-0.4,1.5-0.6,2.1-0.8c0.6-0.2,1.1-0.3,1.6-0.3c0.8,0,1.4,0.2,1.7,0.7c0.4,0.4,0.5,1.1,0.6,1.8
	h0.1c1.1-0.9,2.1-1.6,2.9-2s1.8-0.6,2.8-0.6c1,0,1.8,0.3,2.3,0.9c0.5,0.6,0.8,1.3,0.8,2.2c0,0.2,0,0.5-0.1,1
	c-0.1,0.5-0.1,0.9-0.3,1.4l-1.3,4.9c-0.1,0.3-0.2,0.7-0.3,1.1c-0.1,0.4-0.1,0.8-0.1,1c0,0.6,0.1,1,0.4,1.2s0.7,0.3,1.3,0.3
	c0.2,0,0.5,0,0.9-0.1C330.9,238.9,331.2,238.9,331.3,238.8"/>
<path class="st0" d="M345.2,228.7c0-0.3,0-0.6-0.1-0.9c-0.1-0.3-0.2-0.6-0.5-0.8c-0.2-0.2-0.5-0.4-0.9-0.6c-0.4-0.1-0.8-0.2-1.3-0.2
	c-0.8,0-1.5,0.2-2.2,0.7c-0.7,0.5-1.3,1.1-1.9,2c-0.5,0.8-1,1.7-1.3,2.8s-0.5,2.2-0.5,3.3c0,0.6,0,1.2,0.1,1.7
	c0.1,0.5,0.2,0.9,0.5,1.3s0.5,0.7,0.9,0.9s0.8,0.3,1.4,0.3c0.7,0,1.4-0.2,2.1-0.6s1.4-0.9,2-1.6L345.2,228.7L345.2,228.7z
	 M343.1,238.6l-0.1,0c-0.2,0.2-0.5,0.4-0.9,0.7c-0.4,0.3-0.8,0.6-1.2,0.8c-0.5,0.3-1,0.5-1.4,0.7c-0.5,0.2-1,0.3-1.6,0.3
	c-1.5,0-2.6-0.5-3.5-1.6s-1.2-2.5-1.2-4.4c0-1.3,0.2-2.5,0.7-3.7c0.5-1.2,1.1-2.3,1.9-3.2c0.8-0.9,1.7-1.6,2.8-2.2
	c1.1-0.6,2.2-0.8,3.4-0.8c0.7,0,1.4,0.1,2.1,0.3c0.7,0.2,1.2,0.4,1.6,0.7l2.8-0.7l0.2,0.2l-2.6,12.1c-0.4,1.8-0.9,3.4-1.5,4.7
	s-1.3,2.3-2.1,3c-0.8,0.8-1.7,1.3-2.7,1.6c-1,0.3-2.1,0.5-3.4,0.5c-0.9,0-1.5-0.1-2.1-0.2c-0.5-0.1-1-0.3-1.3-0.5s-0.5-0.5-0.6-0.7
	c-0.1-0.3-0.2-0.5-0.2-0.8c0-0.5,0.1-0.9,0.4-1.2c0.3-0.3,0.7-0.5,1.1-0.5c0.4,0,0.7,0.1,1,0.3s0.5,0.5,0.6,0.7
	c0.2,0.3,0.4,0.6,0.5,1c0.2,0.4,0.3,0.6,0.4,0.8h0.5c0.6,0,1.2-0.1,1.8-0.4c0.6-0.3,1.2-0.7,1.8-1.2c0.5-0.6,1-1.4,1.5-2.4
	C342.5,241.4,342.9,240.1,343.1,238.6L343.1,238.6z"/>
<path class="st0" d="M356.6,239.1c0,0.9-0.2,1.7-0.6,2.4c-0.4,0.8-0.9,1.4-1.5,2c-0.6,0.6-1.2,1.1-1.9,1.5c-0.6,0.4-1.2,0.7-1.7,1
	l-0.5-1c0.5-0.3,1-0.6,1.4-0.9c0.5-0.3,0.9-0.6,1.2-1c0.4-0.4,0.8-0.8,1-1.2s0.5-0.9,0.7-1.4h-0.7c-0.6,0-1.1-0.2-1.4-0.5
	c-0.3-0.3-0.5-0.7-0.5-1.2c0-0.5,0.2-1,0.6-1.5c0.4-0.4,1-0.7,1.7-0.7c0.8,0,1.3,0.2,1.6,0.7S356.6,238.4,356.6,239.1"/>
<path class="st0" d="M379.6,231c0-0.5,0-1.1-0.1-1.6s-0.3-1-0.5-1.4c-0.2-0.4-0.6-0.7-1-0.9c-0.4-0.2-0.9-0.3-1.5-0.3
	c-0.4,0-0.7,0.1-1,0.2c-0.3,0.1-0.6,0.3-1,0.5c-0.3,0.2-0.6,0.4-0.9,0.7c-0.3,0.3-0.5,0.5-0.8,0.7l-2,9.2c0,0.2,0.1,0.4,0.3,0.7
	c0.2,0.2,0.4,0.5,0.6,0.6c0.3,0.2,0.6,0.4,1,0.5c0.4,0.1,0.8,0.2,1.2,0.2c0.8,0,1.6-0.2,2.3-0.7s1.3-1.1,1.9-1.9
	c0.6-0.9,1-1.9,1.3-3C379.5,233.3,379.6,232.1,379.6,231 M382.7,231c0,1.4-0.2,2.7-0.7,3.9s-1.1,2.3-2,3.2c-0.8,0.9-1.8,1.6-2.8,2.2
	c-1,0.5-2.2,0.8-3.3,0.8c-0.9,0-1.7-0.1-2.3-0.2c-0.7-0.1-1.2-0.4-1.7-0.6c-0.5-0.3-0.9-0.6-1.2-0.9c-0.3-0.3-0.6-0.7-0.9-1.1
	l4-17.4c0-0.2,0.1-0.4,0.1-0.6s0-0.3,0-0.5c0-0.4-0.1-0.7-0.2-0.9s-0.3-0.4-0.5-0.4c-0.2-0.1-0.5-0.2-0.8-0.2c-0.3,0-0.7-0.1-1-0.1
	l0.2-0.9l5.7-0.4l0.2,0.2l-2.3,10.2h0.1c0.9-0.8,1.7-1.4,2.5-1.7c0.7-0.3,1.4-0.5,2.1-0.5c1.6,0,2.8,0.5,3.7,1.6
	C382.3,227.7,382.7,229.2,382.7,231L382.7,231z"/>
<path class="st0" d="M395.2,227.9c0-0.4-0.1-0.7-0.2-0.9c-0.1-0.2-0.3-0.4-0.4-0.5c-0.2-0.1-0.4-0.2-0.6-0.2c-0.2,0-0.4-0.1-0.6-0.1
	c-1.2,0-2.4,0.7-3.4,2s-1.7,3-2,5c0.7-0.1,1.5-0.2,2.5-0.4s1.7-0.4,2.3-0.8c0.9-0.4,1.5-1,1.9-1.7S395.2,228.9,395.2,227.9
	 M398,228.3c0,1.1-0.3,2-1,2.8s-1.7,1.4-3,1.9c-1,0.4-1.9,0.6-2.9,0.9c-1,0.2-2.1,0.4-3.2,0.5c0,1.6,0.3,2.9,0.9,3.7
	s1.5,1.3,2.6,1.3c1,0,1.9-0.3,2.7-0.8c0.8-0.5,1.6-1.3,2.3-2.3l0.9,0.6c-0.8,1.2-1.9,2.2-3.1,3c-1.2,0.8-2.5,1.1-3.8,1.1
	c-1.8,0-3.2-0.5-4.2-1.5c-1-1-1.5-2.5-1.5-4.3c0-1.3,0.2-2.5,0.6-3.7c0.4-1.2,1-2.2,1.8-3.2c0.8-1,1.7-1.7,2.8-2.3
	c1.1-0.6,2.3-0.9,3.7-0.9c1.5,0,2.6,0.3,3.3,0.9C397.7,226.6,398,227.4,398,228.3L398,228.3z"/>
<path class="st0" d="M403.3,240.9c-1,0-1.7-0.2-2.1-0.6c-0.5-0.4-0.7-1-0.7-1.7c0-0.2,0-0.5,0-0.7c0-0.2,0.1-0.4,0.1-0.7l2.4-10.3
	h-2.8l0.3-1.4h2.8l1.1-4.5h2.8l-1,4.5h4.3l-0.3,1.4H406l-2,8.5c-0.1,0.4-0.2,0.8-0.2,1.1c-0.1,0.4-0.1,0.7-0.1,0.9
	c0,0.6,0.1,1,0.4,1.2c0.3,0.3,0.8,0.4,1.5,0.4c0.3,0,0.6,0,1.1-0.1c0.5-0.1,0.9-0.1,1.1-0.2l-0.3,1.1c-0.7,0.3-1.4,0.5-2,0.7
	C404.9,240.8,404.2,240.9,403.3,240.9"/>
<path class="st0" d="M414.3,240.9c-1,0-1.7-0.2-2.1-0.6c-0.5-0.4-0.7-1-0.7-1.7c0-0.2,0-0.5,0-0.7c0-0.2,0.1-0.4,0.1-0.7L414,227
	h-2.8l0.3-1.4h2.8l1.1-4.5h2.8l-1,4.5h4.3l-0.3,1.4h-4.2l-2,8.5c-0.1,0.4-0.2,0.8-0.2,1.1c-0.1,0.4-0.1,0.7-0.1,0.9
	c0,0.6,0.1,1,0.4,1.2c0.3,0.3,0.8,0.4,1.5,0.4c0.3,0,0.6,0,1.1-0.1c0.5-0.1,0.9-0.1,1.1-0.2l-0.3,1.1c-0.7,0.3-1.4,0.5-2,0.7
	C415.9,240.8,415.2,240.9,414.3,240.9"/>
<path class="st0" d="M432,227.9c0-0.4-0.1-0.7-0.2-0.9c-0.1-0.2-0.3-0.4-0.4-0.5c-0.2-0.1-0.4-0.2-0.6-0.2c-0.2,0-0.4-0.1-0.6-0.1
	c-1.2,0-2.4,0.7-3.4,2s-1.7,3-2,5c0.7-0.1,1.5-0.2,2.5-0.4s1.7-0.4,2.3-0.8c0.9-0.4,1.5-1,1.9-1.7S432,228.9,432,227.9 M434.8,228.3
	c0,1.1-0.3,2-1,2.8s-1.7,1.4-3,1.9c-1,0.4-1.9,0.6-2.9,0.9c-1,0.2-2.1,0.4-3.2,0.5c0,1.6,0.3,2.9,0.9,3.7s1.5,1.3,2.6,1.3
	c1,0,1.9-0.3,2.7-0.8c0.8-0.5,1.6-1.3,2.3-2.3l0.9,0.6c-0.8,1.2-1.9,2.2-3.1,3c-1.2,0.8-2.5,1.1-3.9,1.1c-1.8,0-3.2-0.5-4.2-1.5
	c-1-1-1.5-2.5-1.5-4.3c0-1.3,0.2-2.5,0.6-3.7c0.4-1.2,1-2.2,1.8-3.2c0.8-1,1.7-1.7,2.8-2.3c1.1-0.6,2.3-0.9,3.7-0.9
	c1.5,0,2.6,0.3,3.3,0.9C434.4,226.6,434.8,227.4,434.8,228.3L434.8,228.3z"/>
<path class="st0" d="M450.1,227.6c0,0.3,0,0.6-0.1,0.9c-0.1,0.4-0.2,0.6-0.4,0.9c-0.2,0.3-0.4,0.5-0.6,0.6s-0.5,0.2-0.9,0.2
	c-0.5,0-1-0.1-1.2-0.4c-0.3-0.3-0.4-0.6-0.4-0.9s0.1-0.7,0.2-1.1c0.1-0.4,0.3-0.8,0.5-1.2c-0.1,0-0.3,0-0.6,0.1s-0.6,0.2-1,0.4
	c-0.4,0.2-0.9,0.5-1.4,0.9s-1,0.9-1.6,1.6l-2.5,11h-2.9l2.2-10c0-0.2,0.1-0.6,0.2-1.1c0.1-0.5,0.1-0.9,0.1-1.1c0-0.6-0.1-1-0.3-1.2
	c-0.2-0.2-0.6-0.3-1.2-0.3c-0.2,0-0.5,0-0.9,0.1c-0.4,0.1-0.6,0.2-0.8,0.2l0.2-1c0.8-0.4,1.5-0.6,2.1-0.8c0.6-0.2,1.1-0.3,1.6-0.3
	c0.8,0,1.4,0.2,1.8,0.7c0.4,0.4,0.5,1.1,0.5,2h0.1c1.2-1.1,2.1-1.8,2.8-2.2c0.6-0.4,1.3-0.6,2-0.6c0.3,0,0.6,0,1,0.1
	c0.3,0.1,0.6,0.2,0.8,0.4c0.2,0.2,0.4,0.5,0.5,0.8S450.1,227.1,450.1,227.6"/>
<path class="st0" d="M466.8,217l-4.3,18.5c-0.1,0.4-0.2,0.8-0.3,1.2c-0.1,0.4-0.1,0.7-0.1,1c0,0.6,0.1,1,0.4,1.2s0.7,0.3,1.3,0.3
	c0.2,0,0.5,0,0.9-0.1c0.4-0.1,0.7-0.1,0.9-0.2l-0.2,1c-0.9,0.4-1.6,0.6-2.1,0.8c-0.5,0.1-1.1,0.2-1.7,0.2c-0.8,0-1.4-0.2-1.9-0.6
	c-0.4-0.4-0.6-0.9-0.6-1.6c0-0.2,0-0.5,0.1-0.7c0-0.3,0.1-0.6,0.2-1l3.8-16.2c0.1-0.3,0.1-0.5,0.1-0.7c0-0.1,0-0.3,0-0.5
	c0-0.4-0.1-0.7-0.2-0.9c-0.1-0.2-0.3-0.4-0.5-0.4c-0.2-0.1-0.5-0.2-0.8-0.2s-0.7-0.1-1-0.1l0.2-0.9l5.7-0.4L466.8,217L466.8,217z"/>
<path class="st0" d="M476.1,219.3c0,0.6-0.2,1.1-0.6,1.5c-0.4,0.4-0.9,0.7-1.4,0.7c-0.5,0-1-0.2-1.4-0.6c-0.4-0.4-0.6-0.9-0.6-1.4
	c0-0.6,0.2-1.1,0.6-1.5s0.8-0.6,1.4-0.6c0.6,0,1.1,0.2,1.4,0.6S476.1,218.8,476.1,219.3 M475,238.9l-0.2,1c-0.9,0.4-1.7,0.6-2.3,0.8
	c-0.6,0.1-1,0.2-1.5,0.2c-0.8,0-1.4-0.2-1.8-0.6s-0.6-0.9-0.6-1.6c0-0.2,0-0.5,0.1-0.7c0-0.3,0.1-0.6,0.2-1l1.6-6.5
	c0.1-0.4,0.2-0.7,0.2-1.1c0.1-0.4,0.1-0.8,0.1-1c0-0.6-0.1-1-0.3-1.1c-0.2-0.2-0.6-0.3-1.2-0.3c-0.2,0-0.5,0-0.9,0.1
	s-0.7,0.1-0.9,0.2l0.2-1c0.8-0.4,1.5-0.6,2.2-0.8c0.6-0.2,1.1-0.3,1.5-0.3c0.8,0,1.5,0.2,1.8,0.6c0.4,0.4,0.6,0.9,0.6,1.6
	c0,0.2,0,0.4-0.1,0.8c0,0.3-0.1,0.6-0.2,0.9l-1.6,6.6c-0.1,0.4-0.2,0.8-0.3,1.2c-0.1,0.4-0.1,0.7-0.1,0.9c0,0.6,0.1,1,0.4,1.2
	s0.7,0.3,1.3,0.3c0.2,0,0.5,0,0.8-0.1C474.6,239.1,474.9,239,475,238.9L475,238.9z"/>
<path class="st0" d="M491.9,227.9c0,1.6-0.2,3.1-0.7,4.8c-0.5,1.6-1.1,3-1.9,4.2c-0.8,1.2-1.8,2.2-3,3c-1.1,0.8-2.4,1.2-3.8,1.2
	s-2.4-0.4-3.2-1.1c-0.8-0.8-1.2-1.7-1.2-3c0-0.2,0-0.5,0.1-0.8c0.1-0.3,0.1-0.5,0.1-0.6l1.3-4.9c0.1-0.4,0.2-0.8,0.3-1.2
	c0.1-0.4,0.1-0.7,0.1-1c0-0.6-0.1-1-0.3-1.1c-0.2-0.2-0.6-0.3-1.2-0.3c-0.2,0-0.5,0.1-0.9,0.1s-0.6,0.2-0.8,0.2l0.2-1
	c0.8-0.4,1.5-0.6,2.1-0.8c0.6-0.2,1.1-0.3,1.5-0.3c0.8,0,1.4,0.2,1.8,0.6s0.6,0.9,0.6,1.6c0,0.2,0,0.4,0,0.8c0,0.3-0.1,0.6-0.2,1
	l-1.5,5.8c-0.1,0.4-0.2,0.8-0.2,1.1c0,0.4-0.1,0.6-0.1,0.7c0,0.5,0.1,1,0.3,1.3s0.4,0.6,0.6,0.8c0.2,0.2,0.5,0.3,0.8,0.4
	c0.3,0.1,0.6,0.1,0.9,0.1c0.7,0,1.4-0.2,2.2-0.7c0.7-0.4,1.4-1,1.9-1.7c0.6-0.8,1.1-1.6,1.5-2.6s0.5-2,0.5-3.1
	c0-0.6-0.1-1.1-0.3-1.4c-0.2-0.3-0.4-0.6-0.6-0.9c-0.2-0.3-0.4-0.5-0.6-0.8c-0.2-0.3-0.3-0.7-0.3-1.2c0-0.6,0.2-1,0.6-1.3
	c0.4-0.3,0.8-0.5,1.2-0.5c0.6,0,1.1,0.2,1.4,0.7C491.7,226.3,491.9,227,491.9,227.9"/>
<path class="st0" d="M502.5,219.3c0,0.6-0.2,1.1-0.6,1.5c-0.4,0.4-0.9,0.7-1.4,0.7c-0.5,0-1-0.2-1.4-0.6c-0.4-0.4-0.6-0.9-0.6-1.4
	c0-0.6,0.2-1.1,0.6-1.5s0.8-0.6,1.4-0.6c0.6,0,1.1,0.2,1.5,0.6C502.3,218.3,502.5,218.8,502.5,219.3 M501.4,238.9l-0.2,1
	c-0.9,0.4-1.7,0.6-2.3,0.8c-0.6,0.1-1,0.2-1.5,0.2c-0.8,0-1.4-0.2-1.8-0.6s-0.6-0.9-0.6-1.6c0-0.2,0-0.5,0.1-0.7
	c0-0.3,0.1-0.6,0.2-1l1.6-6.5c0.1-0.4,0.2-0.7,0.2-1.1s0.1-0.8,0.1-1c0-0.6-0.1-1-0.3-1.1c-0.2-0.2-0.6-0.3-1.2-0.3
	c-0.2,0-0.5,0-0.9,0.1s-0.7,0.1-0.9,0.2l0.2-1c0.8-0.4,1.5-0.6,2.2-0.8c0.6-0.2,1.1-0.3,1.5-0.3c0.8,0,1.5,0.2,1.8,0.6
	c0.4,0.4,0.6,0.9,0.6,1.6c0,0.2,0,0.4-0.1,0.8c0,0.3-0.1,0.6-0.2,0.9l-1.6,6.6c-0.1,0.4-0.2,0.8-0.3,1.2c-0.1,0.4-0.1,0.7-0.1,0.9
	c0,0.6,0.1,1,0.4,1.2s0.7,0.3,1.3,0.3c0.2,0,0.5,0,0.8-0.1C500.9,239.1,501.2,239,501.4,238.9L501.4,238.9z"/>
<path class="st0" d="M520,238.8l-0.2,1c-0.9,0.4-1.7,0.6-2.2,0.8c-0.5,0.2-1,0.3-1.6,0.3c-0.8,0-1.5-0.2-1.9-0.6
	c-0.4-0.4-0.6-0.9-0.6-1.6c0-0.2,0-0.5,0.1-0.8c0-0.3,0.1-0.6,0.2-1l1.5-5.7c0.1-0.4,0.2-0.9,0.3-1.2c0.1-0.4,0.1-0.6,0.1-0.9
	c0-0.7-0.2-1.2-0.5-1.6c-0.3-0.4-0.8-0.6-1.4-0.6s-1.3,0.2-2.1,0.6c-0.8,0.4-1.5,1-2.2,1.8l-2.6,11.3H504l2.3-10
	c0-0.2,0.1-0.6,0.2-1.1c0.1-0.5,0.1-0.9,0.1-1.1c0-0.6-0.1-1-0.3-1.2s-0.6-0.3-1.2-0.3c-0.2,0-0.5,0-0.9,0.1
	c-0.4,0.1-0.6,0.2-0.8,0.2l0.2-1c0.8-0.4,1.5-0.6,2.1-0.8c0.6-0.2,1.1-0.3,1.6-0.3c0.8,0,1.4,0.2,1.7,0.7c0.4,0.4,0.5,1.1,0.6,1.8
	h0.1c1.1-0.9,2.1-1.6,2.9-2c0.8-0.4,1.8-0.6,2.8-0.6c1,0,1.8,0.3,2.3,0.9c0.5,0.6,0.8,1.3,0.8,2.2c0,0.2,0,0.5-0.1,1
	c-0.1,0.5-0.2,0.9-0.3,1.4l-1.3,4.9c-0.1,0.3-0.2,0.7-0.3,1.1c-0.1,0.4-0.1,0.8-0.1,1c0,0.6,0.1,1,0.4,1.2s0.7,0.3,1.3,0.3
	c0.2,0,0.5,0,0.8-0.1C519.5,238.9,519.8,238.9,520,238.8"/>
<path class="st0" d="M533.8,228.7c0-0.3,0-0.6-0.1-0.9c-0.1-0.3-0.2-0.6-0.5-0.8c-0.2-0.2-0.5-0.4-0.9-0.6s-0.8-0.2-1.3-0.2
	c-0.8,0-1.5,0.2-2.2,0.7c-0.7,0.5-1.3,1.1-1.9,2c-0.5,0.8-1,1.7-1.3,2.8s-0.5,2.2-0.5,3.3c0,0.6,0,1.2,0.1,1.7
	c0.1,0.5,0.2,0.9,0.5,1.3c0.2,0.4,0.5,0.7,0.9,0.9s0.8,0.3,1.4,0.3c0.7,0,1.4-0.2,2.2-0.6s1.4-0.9,2-1.6L533.8,228.7L533.8,228.7z
	 M531.8,238.6l-0.1,0c-0.2,0.2-0.5,0.4-0.9,0.7c-0.4,0.3-0.8,0.6-1.2,0.8c-0.5,0.3-1,0.5-1.4,0.7c-0.5,0.2-1,0.3-1.6,0.3
	c-1.5,0-2.6-0.5-3.5-1.6s-1.2-2.5-1.2-4.4c0-1.3,0.2-2.5,0.7-3.7c0.5-1.2,1.1-2.3,1.9-3.2c0.8-0.9,1.7-1.6,2.8-2.2
	c1.1-0.6,2.2-0.8,3.4-0.8c0.7,0,1.4,0.1,2.1,0.3c0.7,0.2,1.2,0.4,1.6,0.7l2.8-0.7l0.2,0.2l-2.6,12.1c-0.4,1.8-0.9,3.4-1.5,4.7
	s-1.3,2.3-2.1,3c-0.8,0.8-1.7,1.3-2.7,1.6c-1,0.3-2.1,0.5-3.4,0.5c-0.8,0-1.5-0.1-2.1-0.2c-0.5-0.1-1-0.3-1.3-0.5s-0.5-0.5-0.6-0.7
	c-0.1-0.3-0.2-0.5-0.2-0.8c0-0.5,0.1-0.9,0.4-1.2c0.3-0.3,0.7-0.5,1.2-0.5c0.4,0,0.7,0.1,1,0.3c0.3,0.2,0.5,0.5,0.7,0.7
	c0.2,0.3,0.3,0.6,0.5,1c0.2,0.4,0.3,0.6,0.4,0.8h0.5c0.6,0,1.2-0.1,1.8-0.4c0.7-0.3,1.2-0.7,1.8-1.2c0.5-0.6,1-1.4,1.5-2.4
	C531.1,241.4,531.5,240.1,531.8,238.6L531.8,238.6z"/>
<path class="st1" d="M229.4,98.2c6.7,0,39.8-0.3,45-4.2c4.3-3.2,4.7-25.7,4.7-30.5c0-7.4-0.2-15.7-1.7-22.9
	c-0.3-1.6-1.5-6.7-2.9-7.7c-5.2-4-38.5-4.2-45.2-4.2s-39.8,0.3-45,4.2c-4.3,3.3-4.8,25.8-4.8,30.7s0.5,27.1,4.8,30.4
	C189.6,98,222.6,98.3,229.4,98.2 M229.4,126.7c-16.2,0-39.1-0.2-54.7-4.8c-11.1-3.3-19.9-9.9-23.7-21.1c-3.2-9.8-3.2-27-3.2-37.3
	s-0.1-27.8,3-37.3c3.8-11.4,12.6-18.1,23.8-21.4C190.2,0.2,213.2,0,229.4,0s39.3,0.1,54.7,4.7C295.2,8,304,14.8,307.8,26
	c3.3,9.7,3.2,27.3,3.2,37.5s0.1,27.6-3,37.1c-3.7,11.3-12.5,18-23.8,21.3C268.6,126.5,245.6,126.7,229.4,126.7L229.4,126.7z
	 M86.2,30.1v95H54.3v-95H0V1.6h140.3v28.5L86.2,30.1L86.2,30.1z M573.5,36.5l39.6-34.9h46.7l-62.5,53.9L573.5,36.5L573.5,36.5z
	 M468.3,1.6h46c48.4,42.6,98.5,80.6,146.3,123.5h-45.2l-51.6-46.6l-51.6,46.6h-44.6l70.5-63.3L470.4,3.5v82.9
	c0,11.8-1.8,27.7-13.6,33.9c-12.6,6.6-47.1,6.5-61.3,6.5s-48.3,0.1-60.5-6.2c-12.1-6.3-14.1-22-14.1-34.2V1.6h31.8v84.7
	c0,2.8,0.2,8.1,3.4,9.3l0.2,0.1c7,2.7,31.5,2.6,39.2,2.6s32.7,0.2,39.6-2.6l0.1-0.1c3.1-1.2,3.3-6.7,3.3-9.3V1.6H468.3z"/>
</svg>
